# xmcd
#
# Track frame offsets:
#	150
#	13629
#	30929
#	43819
#	57409
#	76217
#	93970
#	109546
#	129716
#	145090
#	159983
#	176405
#	191657
#	206540
#	222979
#
# Disc length: 3135 seconds
#
# Revision: 0
# Processed by: cddbd v1.5.2PL0 Copyright (c) Steve Scherf et al.
# Submitted via: dBpowerAMP V4.0
#
DISCID=c30c3d0f
DTITLE=Amanda Borges - Cai na Real
DYEAR=2011
DGENRE=Country
TTITLE0=Cai na real
TTITLE1=Bandido
TTITLE2=Minha mania
TTITLE3=Te expulsei
TTITLE4=Quebrei a cara
TTITLE5=Vem colorir o mundo
TTITLE6=Longe de mim
TTITLE7=Frente a frente
TTITLE8=Essa é nossa hora
TTITLE9=Ciume assumido
TTITLE10=Vida vazia
TTITLE11=Volta pra mim
TTITLE12=Menino bobo
TTITLE13=So pra ter certeza
TTITLE14=Vou te mandar pastar
EXTD=
EXTT0=
EXTT1=
EXTT2=
EXTT3=
EXTT4=
EXTT5=
EXTT6=
EXTT7=
EXTT8=
EXTT9=
EXTT10=
EXTT11=
EXTT12=
EXTT13=
EXTT14=
PLAYORDER=
